<svg id="visual" viewBox="0 0 900 600" width="900" height="600" xmlns="http://www.w3.org/2000/svg" xmlns:xlink="http://www.w3.org/1999/xlink" version="1.1"><rect x="0" y="0" width="900" height="600" fill="#333333"></rect><defs><linearGradient id="grad1_0" x1="33.3%" y1="100%" x2="100%" y2="0%"><stop offset="20%" stop-color="#333333" stop-opacity="1"></stop><stop offset="80%" stop-color="#333333" stop-opacity="1"></stop></linearGradient></defs><defs><linearGradient id="grad2_0" x1="0%" y1="100%" x2="66.7%" y2="0%"><stop offset="20%" stop-color="#333333" stop-opacity="1"></stop><stop offset="80%" stop-color="#333333" stop-opacity="1"></stop></linearGradient></defs><g transform="translate(900, 600)"><path d="M-459.7 0C-439.9 -18.9 -420.2 -37.8 -421.7 -60.6C-423.1 -83.5 -445.9 -110.2 -441.1 -129.5C-436.3 -148.8 -404 -160.6 -383.9 -175.3C-363.8 -190 -355.9 -207.6 -340.7 -219C-325.5 -230.3 -303 -235.5 -294.7 -255.4C-286.5 -275.3 -292.4 -309.9 -279 -321.9C-265.5 -334 -232.6 -323.3 -215.2 -334.8C-197.7 -346.3 -195.7 -379.9 -184 -403C-172.3 -426.1 -151 -438.7 -128.5 -437.5C-106 -436.3 -82.4 -421.3 -60.8 -422.7C-39.2 -424 -19.6 -441.9 0 -459.7L0 0Z" fill="#4CAF50"></path></g><g transform="translate(0, 0)"><path d="M459.7 0C425.6 16.5 391.4 32.9 396.9 57.1C402.4 81.2 447.5 113.1 441.1 129.5C434.7 145.9 376.7 146.9 360.2 164.5C343.8 182.1 368.8 216.2 365.9 235.2C363 254.2 332.2 258 317.4 275C302.7 292.1 304 322.2 290.1 334.8C276.2 347.4 246.9 342.3 229.8 357.5C212.6 372.8 207.6 408.4 188.6 413C169.6 417.6 136.5 391.1 113.3 385.7C90 380.3 76.5 395.9 59.2 411.8C42 427.6 21 443.7 0 459.7L0 0Z" fill="#4CAF50"></path></g></svg>