<svg id="visual" viewBox="0 0 900 600" width="900" height="600" xmlns="http://www.w3.org/2000/svg" xmlns:xlink="http://www.w3.org/1999/xlink" version="1.1"><rect x="0" y="0" width="900" height="600" fill="#161b1f"></rect><path d="M0 398L21.5 397.7C43 397.3 86 396.7 128.8 398.8C171.7 401 214.3 406 257.2 412.5C300 419 343 427 385.8 434C428.7 441 471.3 447 514.2 440.8C557 434.7 600 416.3 642.8 414.7C685.7 413 728.3 428 771.2 436.8C814 445.7 857 448.3 878.5 449.7L900 451L900 601L878.5 601C857 601 814 601 771.2 601C728.3 601 685.7 601 642.8 601C600 601 557 601 514.2 601C471.3 601 428.7 601 385.8 601C343 601 300 601 257.2 601C214.3 601 171.7 601 128.8 601C86 601 43 601 21.5 601L0 601Z" fill="#64ff00"></path><path d="M0 469L21.5 472.3C43 475.7 86 482.3 128.8 487.3C171.7 492.3 214.3 495.7 257.2 492.7C300 489.7 343 480.3 385.8 473.2C428.7 466 471.3 461 514.2 458.7C557 456.3 600 456.7 642.8 462C685.7 467.3 728.3 477.7 771.2 477.5C814 477.3 857 466.7 878.5 461.3L900 456L900 601L878.5 601C857 601 814 601 771.2 601C728.3 601 685.7 601 642.8 601C600 601 557 601 514.2 601C471.3 601 428.7 601 385.8 601C343 601 300 601 257.2 601C214.3 601 171.7 601 128.8 601C86 601 43 601 21.5 601L0 601Z" fill="#46d104"></path><path d="M0 507L21.5 509.7C43 512.3 86 517.7 128.8 516.7C171.7 515.7 214.3 508.3 257.2 510.8C300 513.3 343 525.7 385.8 528C428.7 530.3 471.3 522.7 514.2 517.8C557 513 600 511 642.8 506.3C685.7 501.7 728.3 494.3 771.2 496.3C814 498.3 857 509.7 878.5 515.3L900 521L900 601L878.5 601C857 601 814 601 771.2 601C728.3 601 685.7 601 642.8 601C600 601 557 601 514.2 601C471.3 601 428.7 601 385.8 601C343 601 300 601 257.2 601C214.3 601 171.7 601 128.8 601C86 601 43 601 21.5 601L0 601Z" fill="#2aa403"></path><path d="M0 549L21.5 548C43 547 86 545 128.8 542.2C171.7 539.3 214.3 535.7 257.2 540.8C300 546 343 560 385.8 563.2C428.7 566.3 471.3 558.7 514.2 554.8C557 551 600 551 642.8 549.2C685.7 547.3 728.3 543.7 771.2 547C814 550.3 857 560.7 878.5 565.8L900 571L900 601L878.5 601C857 601 814 601 771.2 601C728.3 601 685.7 601 642.8 601C600 601 557 601 514.2 601C471.3 601 428.7 601 385.8 601C343 601 300 601 257.2 601C214.3 601 171.7 601 128.8 601C86 601 43 601 21.5 601L0 601Z" fill="#0f7900"></path></svg>